# xmcd
#
# Track frame offsets:
#	150
#	14687
#	28346
#	42858
#	59916
#	77651
#	90903
#	106841
#	120301
#	132312
#	144824
#	156662
#
# Disc length: 2262 seconds
#
# Revision: 1
# Processed by: cddbd v1.5.1PL2 Copyright (c) Steve Scherf et al.
# Submitted via: audiograbber 1.82.01
#
DISCID=9d08d40c
DTITLE=BRIDGET and the BIG GIRLS BLUES - 'A woman's blues is never done'
DYEAR=2006
DGENRE=Blues
TTITLE0=Georgia on my mind
TTITLE1=Kitchen Man
TTITLE2=If it don't fit
TTITLE3=I can't give you anything but Love
TTITLE4=Weary Blues
TTITLE5=Glory of Love
TTITLE6=Walkin' the street Blues
TTITLE7=St. Lous Blues
TTITLE8=I got what it takes
TTITLE9=Nobody knows you when your down and out
TTITLE10=When you're smiling
TTITLE11=Can't help lovin dat man
EXTD=
EXTT0=
EXTT1=
EXTT2=
EXTT3=
EXTT4=
EXTT5=
EXTT6=
EXTT7=
EXTT8=
EXTT9=
EXTT10=
EXTT11=
PLAYORDER=
